<svg width="24" height="20" viewBox="0 0 24 20" fill="none" xmlns="http://www.w3.org/2000/svg">
<path d="M21.0909 13.0909V15.725C21.9208 15.9251 22.5454 16.7963 22.5454 17.8409C22.5454 19.0334 21.7314 20 20.7272 20C19.7231 20 18.909 19.0334 18.909 17.8409C18.909 16.7963 19.5337 15.9251 20.3636 15.725V13.0909H9.45452V15.725C10.2845 15.9251 10.9091 16.7963 10.9091 17.8409C10.9091 19.0334 10.095 20 9.09091 20C8.08675 20 7.27273 19.0334 7.27273 17.8409C7.27273 16.7963 7.89737 15.9251 8.72728 15.725V13.0909H2.18182C0.976837 13.0909 0 11.9309 0 10.5C0 9.06908 0.976837 7.90909 2.18182 7.90909H2.9091V5.27498C2.07918 5.07494 1.45455 4.20364 1.45455 3.15909C1.45455 1.96665 2.26857 1 3.27272 1C4.27688 1 5.09091 1.96665 5.09091 3.15909C5.09091 4.20364 4.46627 5.07494 3.63636 5.27498V7.90909H14.5455V5.27498C13.7155 5.07494 13.0909 4.20364 13.0909 3.15909C13.0909 1.96665 13.905 1 14.9091 1C15.9132 1 16.7273 1.96665 16.7273 3.15909C16.7273 4.20364 16.1026 5.07494 15.2728 5.27498V7.90909H21.8182C23.0232 7.90909 24 9.06908 24 10.5C24 11.9309 23.0232 13.0909 21.8182 13.0909H21.0909ZM2.18182 8.77273C1.3785 8.77273 0.727273 9.54606 0.727273 10.5C0.727273 11.454 1.3785 12.2273 2.18182 12.2273H5.81818V8.77273H2.18182ZM12.3636 8.77273V12.2273H17.4546V8.77273H12.3636ZM6.54546 12.2273H11.6364V8.77273H6.54546V12.2273ZM18.1818 12.2273H21.8182C22.6215 12.2273 23.2727 11.454 23.2727 10.5C23.2727 9.54606 22.6215 8.77273 21.8182 8.77273H18.1818V12.2273ZM3.27272 4.45454C3.87522 4.45454 4.36363 3.87455 4.36363 3.15909C4.36363 2.44363 3.87522 1.86364 3.27272 1.86364C2.67023 1.86364 2.18182 2.44363 2.18182 3.15909C2.18182 3.87455 2.67023 4.45454 3.27272 4.45454ZM14.9091 4.45454C15.5116 4.45454 16 3.87455 16 3.15909C16 2.44363 15.5116 1.86364 14.9091 1.86364C14.3066 1.86364 13.8182 2.44363 13.8182 3.15909C13.8182 3.87455 14.3066 4.45454 14.9091 4.45454ZM9.09091 16.5454C8.48842 16.5454 8 17.1255 8 17.8409C8 18.5564 8.48842 19.1364 9.09091 19.1364C9.69342 19.1364 10.1818 18.5564 10.1818 17.8409C10.1818 17.1255 9.69342 16.5454 9.09091 16.5454ZM20.7272 16.5454C20.1247 16.5454 19.6363 17.1255 19.6363 17.8409C19.6363 18.5564 20.1247 19.1364 20.7272 19.1364C21.3297 19.1364 21.8182 18.5564 21.8182 17.8409C21.8182 17.1255 21.3297 16.5454 20.7272 16.5454Z" fill="white"/>
</svg>
