<svg width="26" height="22" viewBox="0 0 26 22" fill="none" xmlns="http://www.w3.org/2000/svg">
<path d="M22.3927 3.53004H18.3608V3.4845C18.3608 1.7992 17.0315 0.432739 15.3921 0.432739H10.5182C8.87883 0.432739 7.5496 1.7992 7.5496 3.4845V3.53004H3.56187C2.49847 3.53004 1.6123 4.44102 1.6123 5.5342V19.2443C1.6123 20.3375 2.49847 21.2485 3.56187 21.2485H22.3927C23.4561 21.2485 24.3423 20.3375 24.3423 19.2443V5.5342C24.3423 4.44102 23.4561 3.53004 22.3927 3.53004ZM8.96744 3.4845C8.96744 2.61906 9.67638 1.8903 10.5182 1.8903H15.3921C16.234 1.8903 16.9429 2.61906 16.9429 3.4845V3.53004L8.96744 3.4845ZM15.1706 14.4162V12.1843H19.6457L22.9244 9.90685V19.1988C22.9244 19.4721 22.703 19.7454 22.3927 19.7454H3.56187C3.29602 19.7454 3.03017 19.5176 3.03017 19.1988V9.90685L5.82157 12.0476L10.5182 12.0932V14.3706H15.1706V14.4162ZM6.30896 10.5901L3.03017 8.08492V5.5342C3.03017 5.26089 3.25171 4.98761 3.56187 4.98761H22.3927C22.6586 4.98761 22.9244 5.21535 22.9244 5.5342V8.22156L19.2026 10.7267L6.30896 10.5901ZM13.7527 12.1843V12.9131H11.9361V12.1843H13.7527Z" fill="white"/>
</svg>
