<svg width="43" height="43" viewBox="0 0 43 43" fill="none" xmlns="http://www.w3.org/2000/svg">
<circle cx="21.5" cy="21.5" r="21.5" fill="#0176AB"/>
<path d="M31.0909 25.0909V27.725C31.9208 27.9251 32.5454 28.7963 32.5454 29.8409C32.5454 31.0334 31.7314 32 30.7272 32C29.7231 32 28.909 31.0334 28.909 29.8409C28.909 28.7963 29.5337 27.9251 30.3636 27.725V25.0909H19.4545V27.725C20.2845 27.9251 20.9091 28.7963 20.9091 29.8409C20.9091 31.0334 20.095 32 19.0909 32C18.0868 32 17.2727 31.0334 17.2727 29.8409C17.2727 28.7963 17.8974 27.9251 18.7273 27.725V25.0909H12.1818C10.9768 25.0909 10 23.9309 10 22.5C10 21.0691 10.9768 19.9091 12.1818 19.9091H12.9091V17.275C12.0792 17.0749 11.4545 16.2036 11.4545 15.1591C11.4545 13.9667 12.2686 13 13.2727 13C14.2769 13 15.0909 13.9667 15.0909 15.1591C15.0909 16.2036 14.4663 17.0749 13.6364 17.275V19.9091H24.5455V17.275C23.7155 17.0749 23.0909 16.2036 23.0909 15.1591C23.0909 13.9667 23.905 13 24.9091 13C25.9132 13 26.7273 13.9667 26.7273 15.1591C26.7273 16.2036 26.1026 17.0749 25.2728 17.275V19.9091H31.8182C33.0232 19.9091 34 21.0691 34 22.5C34 23.9309 33.0232 25.0909 31.8182 25.0909H31.0909ZM12.1818 20.7727C11.3785 20.7727 10.7273 21.5461 10.7273 22.5C10.7273 23.454 11.3785 24.2273 12.1818 24.2273H15.8182V20.7727H12.1818ZM22.3636 20.7727V24.2273H27.4546V20.7727H22.3636ZM16.5455 24.2273H21.6364V20.7727H16.5455V24.2273ZM28.1818 24.2273H31.8182C32.6215 24.2273 33.2727 23.454 33.2727 22.5C33.2727 21.5461 32.6215 20.7727 31.8182 20.7727H28.1818V24.2273ZM13.2727 16.4545C13.8752 16.4545 14.3636 15.8745 14.3636 15.1591C14.3636 14.4436 13.8752 13.8636 13.2727 13.8636C12.6702 13.8636 12.1818 14.4436 12.1818 15.1591C12.1818 15.8745 12.6702 16.4545 13.2727 16.4545ZM24.9091 16.4545C25.5116 16.4545 26 15.8745 26 15.1591C26 14.4436 25.5116 13.8636 24.9091 13.8636C24.3066 13.8636 23.8182 14.4436 23.8182 15.1591C23.8182 15.8745 24.3066 16.4545 24.9091 16.4545ZM19.0909 28.5454C18.4884 28.5454 18 29.1255 18 29.8409C18 30.5564 18.4884 31.1364 19.0909 31.1364C19.6934 31.1364 20.1818 30.5564 20.1818 29.8409C20.1818 29.1255 19.6934 28.5454 19.0909 28.5454ZM30.7272 28.5454C30.1247 28.5454 29.6363 29.1255 29.6363 29.8409C29.6363 30.5564 30.1247 31.1364 30.7272 31.1364C31.3297 31.1364 31.8182 30.5564 31.8182 29.8409C31.8182 29.1255 31.3297 28.5454 30.7272 28.5454Z" fill="white"/>
</svg>
