<svg width="64" height="64" viewBox="0 0 64 64" fill="none" xmlns="http://www.w3.org/2000/svg">
<circle cx="32" cy="32" r="32" fill="#FF0000"/>
<g clip-path="url(#clip0_94_440)">
<path d="M47.4293 22.5792L44.3293 20.9792L32.9627 15.1125C32.6719 14.9625 32.3289 14.9625 32.0383 15.1125L20.6716 20.9792L17.5716 22.5792C17.0609 22.8426 16.8541 23.4833 17.1094 24.0104C17.3647 24.5365 17.9848 24.7521 18.4959 24.4875L20.1004 23.6594V43.8C20.1004 45.5646 21.4909 47 23.2004 47H41.8005C43.5098 47 44.9005 45.5646 44.9005 43.8V23.6594L46.5049 24.4875C46.6532 24.564 46.8111 24.6 46.966 24.6C47.3454 24.6 47.7103 24.3844 47.8913 24.0104C48.1468 23.4833 47.9399 22.8426 47.4293 22.5792ZM42.8337 43.8C42.8337 44.388 42.3701 44.8667 41.8005 44.8667H23.2004C22.6307 44.8667 22.167 44.388 22.167 43.8V22.5927L32.5005 17.2594L42.8337 22.5927V43.8Z" fill="white"/>
<path d="M32.1977 31.3125C31.8198 30.9229 31.2163 30.8948 30.8056 31.2475L24.6056 36.5808C24.1671 36.9579 24.1081 37.6302 24.4734 38.0829C24.6778 38.3358 24.9715 38.4667 25.2676 38.4667C25.5007 38.4667 25.7353 38.3854 25.9285 38.2193L31.4035 33.5099L32.8032 34.9542C33.2068 35.3709 33.8606 35.3709 34.2644 34.9542L38.7005 30.375V32.0667C38.7005 32.6557 39.1631 33.1333 39.7339 33.1333C40.3044 33.1333 40.7671 32.6557 40.7671 32.0667V27.7999C40.7671 27.6611 40.7396 27.5227 40.6874 27.3924C40.5826 27.1317 40.3813 26.9238 40.1288 26.8157C40.0023 26.7617 39.8684 26.7333 39.7339 26.7333H35.6005C35.0299 26.7333 34.5671 27.2109 34.5671 27.7999C34.5671 28.389 35.0299 28.8666 35.6005 28.8666H37.2393L33.5339 32.6917L32.1977 31.3125Z" fill="white"/>
<path d="M39.7338 40.6H25.2672C24.6966 40.6 24.2338 41.0776 24.2338 41.6667C24.2338 42.2557 24.6966 42.7333 25.2672 42.7333H39.7338C40.3044 42.7333 40.7672 42.2557 40.7672 41.6667C40.7672 41.0776 40.3044 40.6 39.7338 40.6Z" fill="white"/>
</g>
<defs>
<clipPath id="clip0_94_440">
<rect width="31" height="32" fill="white" transform="translate(17 15)"/>
</clipPath>
</defs>
</svg>
