<svg width="43" height="43" viewBox="0 0 43 43" fill="none" xmlns="http://www.w3.org/2000/svg">
<circle cx="21.5" cy="21.5" r="21.5" fill="#0176AB"/>
<path d="M31.3927 14.53H27.3608V14.4845C27.3608 12.7992 26.0315 11.4327 24.3921 11.4327H19.5182C17.8788 11.4327 16.5496 12.7992 16.5496 14.4845V14.53H12.5619C11.4985 14.53 10.6123 15.441 10.6123 16.5342V30.2443C10.6123 31.3375 11.4985 32.2485 12.5619 32.2485H31.3927C32.4561 32.2485 33.3423 31.3375 33.3423 30.2443V16.5342C33.3423 15.441 32.4561 14.53 31.3927 14.53ZM17.9674 14.4845C17.9674 13.6191 18.6764 12.8903 19.5182 12.8903H24.3921C25.234 12.8903 25.9429 13.6191 25.9429 14.4845V14.53L17.9674 14.4845ZM24.1706 25.4162V23.1843H28.6457L31.9244 20.9069V30.1988C31.9244 30.4721 31.703 30.7454 31.3927 30.7454H12.5619C12.296 30.7454 12.0302 30.5176 12.0302 30.1988V20.9069L14.8216 23.0476L19.5182 23.0932V25.3706H24.1706V25.4162ZM15.309 21.5901L12.0302 19.0849V16.5342C12.0302 16.2609 12.2517 15.9876 12.5619 15.9876H31.3927C31.6586 15.9876 31.9244 16.2154 31.9244 16.5342V19.2216L28.2026 21.7267L15.309 21.5901ZM22.7527 23.1843V23.9131H20.9361V23.1843H22.7527Z" fill="white"/>
</svg>
