<svg width="43" height="43" viewBox="0 0 43 43" fill="none" xmlns="http://www.w3.org/2000/svg">
<circle cx="21.5" cy="21.5" r="21.5" fill="#0176AB"/>
<g clip-path="url(#clip0_94_457)">
<path d="M24.9251 20.8865C25.2465 20.6264 25.4794 20.273 25.5917 19.8751C25.704 19.4772 25.6902 19.0543 25.5522 18.6645C25.4143 18.2747 25.1589 17.9373 24.8213 17.6986C24.4836 17.46 24.0803 17.3318 23.6669 17.3318C23.2534 17.3318 22.8501 17.46 22.5125 17.6986C22.1748 17.9373 21.9195 18.2747 21.7815 18.6645C21.6435 19.0543 21.6298 19.4772 21.7421 19.8751C21.8544 20.273 22.0873 20.6264 22.4087 20.8865C20.8175 21.4591 19.6667 23.0866 19.6667 25C19.6667 25.05 19.678 25.0993 19.6996 25.1444C19.7212 25.1894 19.7527 25.229 19.7917 25.2603C19.8637 25.3177 21.5739 26.6667 23.6667 26.6667C25.7596 26.6667 27.4698 25.3177 27.5417 25.2603C27.5808 25.229 27.6123 25.1894 27.6339 25.1444C27.6555 25.0993 27.6668 25.05 27.6667 25C27.6667 23.0866 26.516 21.4591 24.9251 20.8865ZM22.3334 19.3333C22.3334 19.0696 22.4116 18.8118 22.5581 18.5926C22.7046 18.3733 22.9129 18.2024 23.1565 18.1015C23.4001 18.0006 23.6682 17.9742 23.9269 18.0256C24.1855 18.0771 24.4231 18.204 24.6096 18.3905C24.796 18.577 24.923 18.8146 24.9745 19.0732C25.0259 19.3318 24.9995 19.5999 24.8986 19.8436C24.7977 20.0872 24.6268 20.2954 24.4075 20.4419C24.1882 20.5885 23.9305 20.6667 23.6667 20.6667C23.3132 20.6663 22.9743 20.5257 22.7244 20.2757C22.4744 20.0257 22.3338 19.6868 22.3334 19.3333ZM23.6667 26C22.1164 26 20.7517 25.1276 20.3368 24.8342C20.4158 22.8891 21.8792 21.3333 23.6667 21.3333C25.4542 21.3333 26.9177 22.8891 26.9967 24.8342C26.5818 25.1276 25.2171 26 23.6667 26Z" fill="white"/>
<path d="M16 32H29.3333C29.7752 31.9995 30.1988 31.8237 30.5113 31.5113C30.8237 31.1988 30.9995 30.7752 31 30.3333V13.6667C30.9995 13.2248 30.8237 12.8012 30.5113 12.4887C30.1988 12.1763 29.7752 12.0005 29.3333 12H16C15.5581 12.0005 15.1345 12.1763 14.822 12.4887C14.5096 12.8012 14.3338 13.2248 14.3333 13.6667V15H13.3333C13.2449 15 13.1601 15.0351 13.0976 15.0976C13.0351 15.1601 13 15.2449 13 15.3333C13 15.4217 13.0351 15.5065 13.0976 15.569C13.1601 15.6316 13.2449 15.6667 13.3333 15.6667H14.3333V18.3333H13.3333C13.2449 18.3333 13.1601 18.3685 13.0976 18.431C13.0351 18.4935 13 18.5783 13 18.6667C13 18.7551 13.0351 18.8399 13.0976 18.9024C13.1601 18.9649 13.2449 19 13.3333 19H14.3333V21.6667H13.3333C13.2449 21.6667 13.1601 21.7018 13.0976 21.7643C13.0351 21.8268 13 21.9116 13 22C13 22.0884 13.0351 22.1732 13.0976 22.2357C13.1601 22.2982 13.2449 22.3333 13.3333 22.3333H14.3333V25H13.3333C13.2449 25 13.1601 25.0351 13.0976 25.0976C13.0351 25.1601 13 25.2449 13 25.3333C13 25.4217 13.0351 25.5065 13.0976 25.569C13.1601 25.6315 13.2449 25.6667 13.3333 25.6667H14.3333V28.3333H13.3333C13.2449 28.3333 13.1601 28.3685 13.0976 28.431C13.0351 28.4935 13 28.5783 13 28.6667C13 28.7551 13.0351 28.8399 13.0976 28.9024C13.1601 28.9649 13.2449 29 13.3333 29H14.3333V30.3333C14.3338 30.7752 14.5096 31.1988 14.822 31.5113C15.1345 31.8237 15.5581 31.9995 16 32ZM17.6667 12.6667H29.3333C29.5985 12.667 29.8526 12.7724 30.0401 12.9599C30.2276 13.1474 30.333 13.4015 30.3333 13.6667V30.3333C30.333 30.5985 30.2276 30.8526 30.0401 31.0401C29.8526 31.2276 29.5985 31.333 29.3333 31.3333H17.6667V12.6667ZM15 29H16C16.0884 29 16.1732 28.9649 16.2357 28.9024C16.2982 28.8399 16.3333 28.7551 16.3333 28.6667C16.3333 28.5783 16.2982 28.4935 16.2357 28.431C16.1732 28.3685 16.0884 28.3333 16 28.3333H15V25.6667H16C16.0884 25.6667 16.1732 25.6315 16.2357 25.569C16.2982 25.5065 16.3333 25.4217 16.3333 25.3333C16.3333 25.2449 16.2982 25.1601 16.2357 25.0976C16.1732 25.0351 16.0884 25 16 25H15V22.3333H16C16.0884 22.3333 16.1732 22.2982 16.2357 22.2357C16.2982 22.1732 16.3333 22.0884 16.3333 22C16.3333 21.9116 16.2982 21.8268 16.2357 21.7643C16.1732 21.7018 16.0884 21.6667 16 21.6667H15V19H16C16.0884 19 16.1732 18.9649 16.2357 18.9024C16.2982 18.8399 16.3333 18.7551 16.3333 18.6667C16.3333 18.5783 16.2982 18.4935 16.2357 18.431C16.1732 18.3685 16.0884 18.3333 16 18.3333H15V15.6667H16C16.0884 15.6667 16.1732 15.6316 16.2357 15.569C16.2982 15.5065 16.3333 15.4217 16.3333 15.3333C16.3333 15.2449 16.2982 15.1601 16.2357 15.0976C16.1732 15.0351 16.0884 15 16 15H15V13.6667C15.0003 13.4015 15.1058 13.1474 15.2932 12.9599C15.4807 12.7724 15.7349 12.667 16 12.6667H17V31.3333H16C15.7349 31.333 15.4807 31.2276 15.2932 31.0401C15.1058 30.8526 15.0003 30.5985 15 30.3333V29Z" fill="white"/>
</g>
<defs>
<clipPath id="clip0_94_457">
<rect width="18" height="20" fill="white" transform="translate(13 12)"/>
</clipPath>
</defs>
</svg>
