<svg width="43" height="43" viewBox="0 0 43 43" fill="none" xmlns="http://www.w3.org/2000/svg">
<circle cx="21.5" cy="21.5" r="21.5" fill="#0176AB"/>
<g clip-path="url(#clip0_94_450)">
<path d="M30 32.2196H14V29.0671C14.1959 28.2694 14.751 27.5478 15.3714 27.244L19.4857 25.003L19.7143 24.927C20.1714 24.8131 20.4653 24.2813 20.4 23.7496L20.2041 22.3822L20.8571 22.2682L21.0204 23.6356C21.1184 24.5472 20.6286 25.4208 19.8449 25.6487L19.649 25.6866L15.6327 27.9276C15.2082 28.1556 14.8163 28.6873 14.6531 29.257V31.4599H29.3469V29.257C29.1184 28.5733 28.7265 27.8137 28.302 27.6237L23.9918 25.7626C23.2735 25.4968 22.849 24.6612 22.9469 23.7875L23.1429 22.3062L23.7959 22.4202L23.6 23.8635C23.5347 24.3573 23.7959 24.8511 24.2204 25.003L28.5306 26.9021C29.3796 27.2819 29.8694 28.7633 29.9673 29.0671L30 29.1431V32.2196Z" fill="white"/>
<path d="M25.8531 19.2676L25.6245 18.546C25.8857 18.432 26.3102 18.1662 26.4408 17.9383C26.5061 17.7863 26.5715 17.4825 26.4735 17.2546C26.3755 16.9507 26.0817 16.7228 25.6572 16.6089L25.8204 15.8872C26.6041 16.1151 26.9306 16.6089 27.0612 16.9887C27.2572 17.5205 27.1592 18.0522 26.9959 18.3561C26.7674 18.8878 26.0163 19.2297 25.8531 19.2676Z" fill="white"/>
<path d="M18.1469 19.2676C18.0163 19.1917 17.2653 18.8878 17.0041 18.3561C16.8408 18.0522 16.7429 17.5205 16.9388 16.9887C17.0694 16.6089 17.3959 16.1531 18.1796 15.8872L18.3429 16.6089C17.9184 16.7228 17.6571 16.9507 17.5265 17.2546C17.4286 17.5205 17.4612 17.7863 17.5592 17.9383C17.6571 18.1662 18.0816 18.432 18.3755 18.546L18.1469 19.2676Z" fill="white"/>
<path d="M22.0001 23.4837C21.2164 23.4837 18.1797 21.1288 17.9185 18.1662V16.6469C17.9185 15.3555 18.4409 13.9502 18.7674 13.1145C18.8327 12.9626 18.8654 12.8107 18.898 12.7347C19.1266 12.127 19.4858 11.8991 19.9429 11.6332C20.0736 11.5573 20.2042 11.4813 20.3674 11.3674C20.596 11.2154 20.8572 11.1015 21.0858 10.9875C21.4123 10.8356 21.8042 10.6457 21.8368 10.4558C21.9021 10.1519 22.098 10 22.3593 10C22.8164 10.038 23.4042 10.7217 23.4695 11.2534C23.5021 11.5193 23.5348 11.5573 23.7634 11.8611C23.8287 11.9371 23.9266 12.051 24.0246 12.203C24.2858 12.5828 24.9389 13.4184 25.2654 13.6463C25.6572 13.9502 25.9511 15.0516 26.0491 15.3555V15.4694V17.7484C26.0817 20.9389 22.7838 23.4837 22.0001 23.4837ZM18.5715 17.7863C18.5715 20.4831 21.5756 22.686 22.0001 22.724C22.4246 22.686 25.4287 20.4831 25.4287 17.7863V15.5454C25.2654 14.9757 25.0368 14.3679 24.9062 14.292C24.547 14.0261 24.0572 13.3804 23.5348 12.6967C23.4368 12.5828 23.3389 12.4688 23.2736 12.3929C23.0123 12.089 22.8491 11.8611 22.7838 11.3674C22.7511 11.2154 22.5552 10.9496 22.3919 10.8356C22.2287 11.2534 21.7715 11.4813 21.3144 11.7092C21.0858 11.8231 20.8899 11.9371 20.6613 12.051C20.498 12.165 20.3348 12.2409 20.2042 12.3169C19.747 12.5828 19.6164 12.6587 19.4858 13.0006C19.4531 13.1145 19.3878 13.2665 19.3225 13.4184C19.0613 14.216 18.5715 15.5074 18.5715 16.6469V17.7863Z" fill="white"/>
</g>
<defs>
<clipPath id="clip0_94_450">
<rect width="16" height="22.2196" fill="white" transform="translate(14 10)"/>
</clipPath>
</defs>
</svg>
