<svg width="16" height="22" viewBox="0 0 16 22" fill="none" xmlns="http://www.w3.org/2000/svg">
<g clip-path="url(#clip0_92_410)">
<path d="M16 21.5549H0V18.5008C0.195918 17.728 0.751021 17.029 1.37143 16.7346L5.48571 14.5636L5.71429 14.49C6.17143 14.3796 6.46531 13.8644 6.4 13.3493L6.20408 12.0246L6.85714 11.9142L7.02041 13.2389C7.11837 14.122 6.62857 14.9683 5.8449 15.1892L5.64898 15.2259L1.63265 17.3969C1.20816 17.6177 0.816326 18.1328 0.653061 18.6848V20.819H15.3469V18.6848C15.1184 18.0224 14.7265 17.2865 14.302 17.1025L9.99184 15.2995C9.27347 15.0419 8.84898 14.2324 8.94694 13.386L9.14286 11.951L9.79592 12.0614L9.6 13.4596C9.53469 13.9381 9.79592 14.4164 10.2204 14.5636L14.5306 16.4034C15.3796 16.7713 15.8694 18.2065 15.9673 18.5008L16 18.5744V21.5549Z" fill="white"/>
<path d="M11.8531 9.00733L11.6245 8.30819C11.8857 8.1978 12.3102 7.94023 12.4408 7.71944C12.5061 7.57226 12.5715 7.27788 12.4735 7.0571C12.3755 6.76273 12.0817 6.54195 11.6572 6.43157L11.8204 5.73242C12.6041 5.9532 12.9306 6.43157 13.0612 6.79953C13.2572 7.31468 13.1592 7.82983 12.9959 8.12421C12.7674 8.63936 12.0163 8.97053 11.8531 9.00733Z" fill="white"/>
<path d="M4.14694 9.00733C4.01632 8.93373 3.2653 8.63936 3.00408 8.12421C2.84081 7.82983 2.74285 7.31468 2.93877 6.79953C3.06938 6.43157 3.39592 5.99 4.17959 5.73242L4.34285 6.43157C3.91836 6.54195 3.65714 6.76273 3.52653 7.0571C3.42857 7.31468 3.46122 7.57226 3.55918 7.71944C3.65714 7.94023 4.08163 8.1978 4.37551 8.30819L4.14694 9.00733Z" fill="white"/>
<path d="M8.00009 13.0918C7.21642 13.0918 4.17968 10.8103 3.91846 7.9402V6.46834C3.91846 5.21725 4.44091 3.85578 4.76744 3.04625C4.83274 2.89907 4.8654 2.75188 4.89805 2.67829C5.12662 2.08954 5.4858 1.86876 5.94295 1.61119C6.07356 1.53759 6.20417 1.46399 6.36744 1.35361C6.59601 1.20642 6.85723 1.09603 7.08581 0.985642C7.41234 0.838456 7.80417 0.654473 7.83683 0.470489C7.90213 0.176117 8.09805 0.0289307 8.35927 0.0289307C8.81642 0.0657272 9.40417 0.728066 9.46948 1.24322C9.50213 1.50079 9.53479 1.53759 9.76336 1.83196C9.82866 1.90556 9.92662 2.01594 10.0246 2.16314C10.2858 2.5311 10.9389 3.34062 11.2654 3.5614C11.6572 3.85578 11.9511 4.92288 12.0491 5.21725V5.32764V7.53544C12.0817 10.6264 8.78376 13.0918 8.00009 13.0918ZM4.57152 7.57224C4.57152 10.1848 7.5756 12.319 8.00009 12.3558C8.42458 12.319 11.4287 10.1848 11.4287 7.57224V5.40123C11.2654 4.84928 11.0368 4.26053 10.9062 4.18695C10.547 3.92937 10.0572 3.30383 9.53479 2.64149C9.43683 2.5311 9.33887 2.42071 9.27356 2.34712C9.01234 2.05274 8.84907 1.83196 8.78377 1.35361C8.75111 1.20642 8.55519 0.948846 8.39193 0.838456C8.22866 1.24322 7.77152 1.46399 7.31438 1.68478C7.08581 1.79517 6.88989 1.90556 6.66132 2.01594C6.49805 2.12634 6.33478 2.19993 6.20417 2.27352C5.74703 2.5311 5.61642 2.60469 5.4858 2.93587C5.45315 3.04625 5.38785 3.19344 5.32254 3.34062C5.06131 4.11335 4.57152 5.36444 4.57152 6.46834V7.57224Z" fill="white"/>
</g>
<defs>
<clipPath id="clip0_92_410">
<rect width="16" height="21.526" fill="white" transform="translate(0 0.0289307)"/>
</clipPath>
</defs>
</svg>
