<svg width="36" height="32" viewBox="0 0 36 32" fill="none" xmlns="http://www.w3.org/2000/svg">
<path d="M31.6364 20.0541V24.3813C32.8812 24.7099 33.8181 26.1412 33.8181 27.8573C33.8181 29.8162 32.5972 31.4041 31.0908 31.4041C29.5847 31.4041 28.3636 29.8162 28.3636 27.8573C28.3636 26.1412 29.3005 24.7099 30.5454 24.3813V20.0541H14.1818V24.3813C15.4267 24.7099 16.3637 26.1412 16.3637 27.8573C16.3637 29.8162 15.1426 31.4041 13.6364 31.4041C12.1301 31.4041 10.9091 29.8162 10.9091 27.8573C10.9091 26.1412 11.846 24.7099 13.0909 24.3813V20.0541H3.27273C1.46526 20.0541 0 18.1484 0 15.7978C0 13.4471 1.46526 11.5415 3.27273 11.5415H4.36364V7.21424C3.11878 6.88561 2.18182 5.45426 2.18182 3.73831C2.18182 1.7794 3.40286 0.191406 4.90908 0.191406C6.41532 0.191406 7.63636 1.7794 7.63636 3.73831C7.63636 5.45426 6.69941 6.88561 5.45454 7.21424V11.5415H21.8182V7.21424C20.5733 6.88561 19.6363 5.45426 19.6363 3.73831C19.6363 1.7794 20.8574 0.191406 22.3636 0.191406C23.8698 0.191406 25.0909 1.7794 25.0909 3.73831C25.0909 5.45426 24.1539 6.88561 22.9092 7.21424V11.5415H32.7273C34.5348 11.5415 36 13.4471 36 15.7978C36 18.1484 34.5348 20.0541 32.7273 20.0541H31.6364ZM3.27273 12.9603C2.06774 12.9603 1.09091 14.2307 1.09091 15.7978C1.09091 17.365 2.06774 18.6353 3.27273 18.6353H8.72727V12.9603H3.27273ZM18.5454 12.9603V18.6353H26.1818V12.9603H18.5454ZM9.81818 18.6353H17.4546V12.9603H9.81818V18.6353ZM27.2728 18.6353H32.7273C33.9322 18.6353 34.9091 17.365 34.9091 15.7978C34.9091 14.2307 33.9322 12.9603 32.7273 12.9603H27.2728V18.6353ZM4.90908 5.86644C5.81282 5.86644 6.54545 4.91364 6.54545 3.73831C6.54545 2.56296 5.81282 1.61017 4.90908 1.61017C4.00535 1.61017 3.27273 2.56296 3.27273 3.73831C3.27273 4.91364 4.00535 5.86644 4.90908 5.86644ZM22.3636 5.86644C23.2674 5.86644 24 4.91364 24 3.73831C24 2.56296 23.2674 1.61017 22.3636 1.61017C21.4599 1.61017 20.7273 2.56296 20.7273 3.73831C20.7273 4.91364 21.4599 5.86644 22.3636 5.86644ZM13.6364 25.729C12.7326 25.729 12 26.682 12 27.8573C12 29.0326 12.7326 29.9854 13.6364 29.9854C14.5401 29.9854 15.2727 29.0326 15.2727 27.8573C15.2727 26.682 14.5401 25.729 13.6364 25.729ZM31.0908 25.729C30.1871 25.729 29.4545 26.682 29.4545 27.8573C29.4545 29.0326 30.1871 29.9854 31.0908 29.9854C31.9946 29.9854 32.7273 29.0326 32.7273 27.8573C32.7273 26.682 31.9946 25.729 31.0908 25.729Z" fill="white"/>
</svg>
